<?xml version="1.0" standalone="no"?>
<!DOCTYPE svg PUBLIC "-//W3C//DTD SVG 20010904//EN"
 "http://www.w3.org/TR/2001/REC-SVG-20010904/DTD/svg10.dtd">
<svg version="1.0" xmlns="http://www.w3.org/2000/svg"
 width="534.000000pt" height="540.000000pt" viewBox="0 0 534.000000 540.000000"
 preserveAspectRatio="xMidYMid meet">

<g transform="translate(0.000000,540.000000) scale(0.100000,-0.100000)"
fill="#000000" stroke="none">
<path d="M2917 4691 c100 -4 185 -10 189 -14 4 -4 -12 -7 -35 -7 -25 0 -40 -4
-36 -10 3 -5 -6 -12 -20 -16 -14 -3 -25 -12 -25 -20 0 -8 -5 -14 -11 -14 -5 0
-7 -4 -4 -10 3 -5 2 -10 -4 -10 -6 0 -17 -12 -25 -27 -9 -17 -16 -22 -16 -13
-1 8 -8 2 -15 -15 -8 -16 -14 -24 -15 -17 0 10 -3 10 -15 -2 -18 -18 -19 -33
-2 -39 6 -2 9 -7 6 -10 -9 -11 -49 -15 -149 -18 -52 -2 6 -5 130 -8 221 -6
226 -6 282 -34 107 -52 158 -142 158 -277 0 -86 -42 -177 -103 -221 -72 -52
-116 -59 -379 -59 l-238 0 -1 238 c-2 207 -3 223 -10 129 -4 -60 -10 -111 -13
-115 -3 -3 -6 3 -6 13 0 17 -1 17 -20 0 -11 -10 -20 -22 -20 -27 0 -19 -35
-55 -49 -50 -8 3 -11 0 -7 -6 3 -5 -1 -13 -10 -16 -9 -4 -14 -13 -10 -21 3 -8
1 -15 -5 -15 -5 0 -30 -15 -54 -32 -39 -29 -44 -38 -45 -72 0 -22 -3 -36 -7
-32 -5 4 -11 69 -14 144 -3 75 -6 -93 -7 -375 -1 -304 2 -522 8 -537 12 -32
45 -49 77 -41 14 3 63 45 109 93 l83 87 1 178 0 177 248 0 c283 0 343 9 461
67 269 133 371 489 223 780 -29 57 -117 150 -179 189 -28 19 -87 46 -130 60
-73 25 -91 27 -278 29 l-200 3 182 -7z m-2 -221 c3 -5 1 -10 -4 -10 -6 0 -11
5 -11 10 0 6 2 10 4 10 3 0 8 -4 11 -10z"/>
<path d="M2581 4414 c0 -11 3 -14 6 -6 3 7 2 16 -1 19 -3 4 -6 -2 -5 -13z"/>
<path d="M2120 3420 c-6 -11 -8 -20 -6 -20 3 0 10 9 16 20 6 11 8 20 6 20 -3
0 -10 -9 -16 -20z"/>
<path d="M2090 3365 c-13 -34 -24 -81 -18 -75 8 8 37 100 32 100 -2 0 -9 -11
-14 -25z"/>
<path d="M1791 3334 c0 -11 3 -14 6 -6 3 7 2 16 -1 19 -3 4 -6 -2 -5 -13z"/>
<path d="M1784 3190 c0 -52 1 -74 3 -47 2 26 2 68 0 95 -2 26 -3 4 -3 -48z"/>
<path d="M2060 3210 c-1 -36 -2 -77 -1 -93 1 -27 1 -27 -24 -11 -23 15 -25 15
-31 0 -3 -9 -12 -16 -19 -16 -7 0 -16 -7 -19 -16 -3 -8 -10 -13 -15 -10 -5 3
-12 -1 -15 -9 -3 -8 -9 -15 -13 -14 -20 3 -34 -2 -28 -10 3 -6 -3 -8 -13 -6
-13 2 -23 -5 -31 -22 -15 -33 -28 -21 -46 43 -7 27 -14 40 -14 29 -1 -28 22
-112 47 -167 59 -135 165 -247 430 -456 278 -219 310 -242 334 -242 26 0 62
30 352 289 113 101 208 193 212 203 9 28 -7 40 -121 91 -174 77 -168 76 -217
39 -125 -94 -189 -121 -288 -122 -184 -1 -345 104 -427 276 -33 70 -38 90 -43
184 -6 92 -7 97 -10 40z"/>
<path d="M300 1531 l0 -231 48 0 47 0 -3 80 -4 80 96 0 c107 0 147 12 186 55
22 23 25 36 25 95 0 54 -4 72 -20 90 -41 45 -72 53 -227 58 l-148 4 0 -231z
m291 120 c25 -31 24 -54 -3 -85 -21 -23 -31 -26 -108 -27 l-85 -2 -3 72 -3 73
91 -3 c82 -4 94 -6 111 -28z"/>
<path d="M780 1531 l0 -231 48 0 47 0 -3 76 c-3 42 0 80 5 85 5 5 32 6 60 2
52 -6 52 -6 104 -84 l52 -79 54 0 54 0 -62 90 c-34 50 -60 92 -58 93 2 1 18 9
34 17 88 45 81 193 -11 240 -20 10 -74 16 -176 18 l-148 4 0 -231z m270 136
c30 -15 39 -71 16 -102 -12 -17 -28 -21 -105 -23 l-91 -4 0 71 0 71 78 0 c42
0 88 -6 102 -13z"/>
<path d="M1369 1732 c-94 -49 -136 -143 -115 -255 24 -126 177 -211 311 -173
109 32 169 114 169 231 1 142 -88 224 -240 225 -59 0 -81 -5 -125 -28z m212
-75 c44 -29 64 -70 63 -128 -1 -88 -62 -149 -151 -149 -61 0 -106 27 -133 79
-42 83 -11 177 70 213 36 16 117 8 151 -15z"/>
<path d="M1770 1754 c0 -7 149 -192 161 -199 17 -11 9 -24 -86 -134 -52 -61
-95 -113 -95 -116 0 -3 26 -5 57 -3 l58 3 64 80 c35 44 67 81 71 83 4 2 38
-36 76 -82 l69 -86 53 0 c28 0 52 4 52 8 0 5 -40 57 -90 116 -49 60 -90 110
-90 112 0 2 41 53 90 112 l91 107 -53 3 c-58 4 -53 7 -153 -112 l-40 -47 -63
80 -63 81 -55 0 c-30 0 -54 -3 -54 -6z"/>
<path d="M2320 1530 l0 -230 45 0 45 0 0 230 0 230 -45 0 -45 0 0 -230z"/>
<path d="M2513 1748 c-24 -32 -23 -49 8 -77 l30 -28 -25 -30 c-32 -38 -32 -43
-3 -43 50 0 98 91 81 152 -8 28 -14 33 -45 36 -21 2 -40 -2 -46 -10z"/>
<path d="M2795 1746 c-16 -7 -45 -25 -63 -41 -129 -109 -86 -341 74 -396 61
-21 152 -16 207 10 50 24 56 38 32 75 l-16 24 -37 -20 c-54 -28 -151 -22 -188
12 -79 73 -68 211 20 253 48 22 122 22 169 -2 l36 -19 16 24 c24 37 18 54 -27
74 -51 23 -176 26 -223 6z"/>
<path d="M3130 1531 l0 -231 169 0 169 0 -1 40 -1 39 -118 3 -119 3 -3 185 -3
185 -47 3 -46 3 0 -230z"/>
<path d="M3530 1530 l0 -230 175 0 175 0 0 40 0 40 -130 0 -130 0 0 60 0 60
115 0 115 0 0 35 0 35 -115 0 -115 0 0 55 0 55 131 0 130 0 -3 38 -3 37 -172
3 -173 2 0 -230z"/>
<path d="M4027 1548 c-53 -117 -99 -221 -102 -230 -6 -16 -1 -18 42 -18 l49 0
23 55 23 55 119 0 119 0 25 -55 24 -55 52 0 c37 0 50 3 46 13 -3 6 -39 84 -80
172 -41 88 -86 186 -100 218 l-26 57 -59 0 -59 0 -96 -212z m201 32 l41 -90
-85 0 c-47 0 -84 4 -82 8 47 112 74 172 79 172 3 0 24 -40 47 -90z"/>
<path d="M4520 1758 c0 -2 -2 -105 -5 -230 l-4 -228 47 0 47 0 0 133 c-1 216
-11 214 145 29 135 -160 135 -161 178 -161 l42 -1 0 230 0 230 -45 0 -44 0 -3
-155 -3 -155 -129 155 -129 155 -48 0 c-27 0 -49 -1 -49 -2z"/>
<path d="M920 965 l0 -125 75 0 c43 0 75 4 75 10 0 6 -27 10 -60 10 l-60 0 0
115 c0 96 -3 115 -15 115 -13 0 -15 -21 -15 -125z"/>
<path d="M2112 1074 c4 -21 22 -23 26 -1 2 10 -3 17 -13 17 -10 0 -15 -6 -13
-16z"/>
<path d="M4306 1073 c-3 -3 -6 -17 -6 -30 0 -14 -6 -23 -15 -23 -8 0 -15 -4
-15 -10 0 -5 7 -10 15 -10 12 0 15 -14 15 -68 0 -40 5 -73 12 -80 14 -14 68
-16 68 -2 0 6 -11 10 -25 10 -14 0 -25 6 -26 13 -1 6 -2 38 -3 70 -3 57 -3 57
26 57 36 0 37 18 1 22 -22 2 -27 8 -25 25 3 22 -10 38 -22 26z"/>
<path d="M3110 1045 c0 -16 -6 -25 -15 -25 -8 0 -15 -4 -15 -10 0 -5 7 -10 15
-10 12 0 15 -13 15 -61 0 -76 12 -99 50 -99 35 0 41 17 8 22 -21 3 -23 9 -26
71 -3 66 -3 67 23 67 14 0 25 5 25 10 0 6 -11 10 -25 10 -20 0 -25 5 -25 25 0
16 -6 25 -15 25 -9 0 -15 -9 -15 -25z"/>
<path d="M1154 1020 c-56 -23 -73 -112 -29 -155 16 -17 35 -25 57 -25 34 0 78
23 78 41 0 14 -26 11 -40 -6 -26 -32 -90 -5 -90 38 0 14 11 17 70 17 39 0 70
2 70 5 0 25 -34 77 -55 85 -30 12 -33 12 -61 0z m64 -32 c26 -26 13 -38 -43
-38 l-55 0 16 25 c18 27 61 34 82 13z"/>
<path d="M1633 1023 c-13 -2 -32 -16 -44 -31 -28 -35 -22 -107 11 -134 31 -25
92 -24 115 2 24 26 13 37 -17 16 -12 -9 -32 -16 -44 -16 -24 0 -54 29 -54 53
0 14 11 17 65 17 65 0 65 0 65 28 0 45 -45 75 -97 65z m65 -50 c14 -23 14 -23
-42 -23 -58 0 -67 8 -40 35 22 22 63 15 82 -12z"/>
<path d="M1838 1016 c-16 -8 -28 -11 -28 -5 0 5 -6 9 -13 9 -11 0 -14 -22 -14
-90 -1 -71 2 -90 13 -90 11 0 14 16 14 63 0 67 17 97 53 97 9 0 17 7 17 15 0
19 -8 19 -42 1z"/>
<path d="M2253 1023 c-34 -7 -63 -50 -63 -95 0 -51 35 -88 82 -88 34 0 78 23
78 41 0 14 -20 11 -36 -6 -21 -20 -57 -19 -77 3 -23 25 -22 85 1 105 23 21 71
22 78 2 6 -16 34 -21 34 -7 0 26 -57 52 -97 45z"/>
<path d="M2444 1020 c-56 -22 -73 -112 -29 -155 16 -17 35 -25 57 -25 34 0 78
23 78 41 0 14 -26 11 -40 -6 -26 -32 -90 -5 -90 38 0 14 11 17 65 17 62 0 65
1 65 24 0 48 -59 85 -106 66z m64 -32 c26 -26 13 -38 -38 -38 -54 0 -55 1 -40
31 12 22 59 26 78 7z"/>
<path d="M2730 1016 c-18 -6 -35 -17 -38 -23 -4 -15 24 -17 33 -3 3 6 20 10
36 10 22 0 32 -6 38 -22 8 -21 5 -24 -41 -31 -64 -11 -89 -43 -64 -82 18 -27
61 -34 97 -15 13 7 19 7 19 0 0 -5 5 -10 10 -10 15 0 13 143 -2 162 -18 22
-49 27 -88 14z m75 -96 c4 -6 -1 -22 -10 -36 -19 -30 -61 -30 -79 -1 -9 15 -7
21 8 33 23 16 72 19 81 4z"/>
<path d="M3281 1014 c-12 -9 -21 -11 -21 -5 0 6 -7 11 -15 11 -12 0 -14 -15
-10 -87 5 -103 25 -127 25 -30 0 67 16 97 53 97 9 0 17 4 17 9 0 17 -28 19
-49 5z"/>
<path d="M3403 1020 c-56 -22 -70 -124 -23 -162 29 -24 82 -23 111 1 30 24 19
39 -13 17 -12 -9 -32 -16 -44 -16 -24 0 -54 29 -54 53 0 14 11 17 70 17 l70 0
-6 28 c-12 51 -64 80 -111 62z m70 -38 c23 -25 13 -32 -45 -32 -52 0 -53 1
-38 31 14 25 61 25 83 1z"/>
<path d="M3726 1015 c-20 -11 -33 -12 -40 -5 -14 14 -69 13 -84 -2 -9 -9 -12
-9 -12 0 0 7 -7 12 -15 12 -12 0 -15 -17 -15 -90 0 -73 3 -90 15 -90 12 0 15
14 15 63 0 49 4 68 18 80 45 41 72 13 72 -75 0 -39 4 -68 10 -68 6 0 10 26 10
58 0 67 19 102 55 102 33 0 45 -27 45 -99 0 -34 4 -61 10 -61 6 0 10 33 10 79
0 71 -2 82 -22 95 -28 20 -36 20 -72 1z"/>
<path d="M3933 1022 c-34 -5 -63 -49 -63 -94 0 -51 35 -88 82 -88 34 0 78 23
78 41 0 14 -20 11 -36 -6 -32 -31 -94 -6 -94 38 0 14 11 17 65 17 59 0 65 2
65 21 0 47 -44 80 -97 71z m55 -34 c26 -26 13 -38 -38 -38 -52 0 -60 8 -34 34
18 19 55 21 72 4z"/>
<path d="M1407 1002 c-10 -10 -17 -23 -17 -29 0 -17 35 -42 68 -49 64 -13 64
-64 0 -64 -16 0 -31 6 -34 15 -6 16 -34 21 -34 7 0 -19 38 -42 69 -42 48 0 71
16 71 49 0 34 -11 43 -68 60 -32 9 -42 17 -40 29 4 20 55 29 71 13 6 -6 17
-11 24 -11 11 0 11 5 3 20 -14 27 -89 28 -113 2z"/>
<path d="M1921 968 c12 -29 27 -69 34 -88 21 -59 42 -46 81 49 39 98 38 91 20
91 -7 0 -23 -27 -36 -62 -12 -35 -26 -67 -30 -71 -4 -5 -20 23 -35 62 -15 41
-33 71 -41 71 -11 0 -9 -11 7 -52z"/>
<path d="M2110 930 c0 -65 3 -90 13 -90 9 0 12 25 12 90 1 67 -2 90 -12 90
-10 0 -13 -23 -13 -90z"/>
<path d="M2890 947 c0 -59 4 -77 18 -90 22 -20 73 -22 90 -5 9 9 12 9 12 0 0
-7 7 -12 15 -12 12 0 15 17 15 90 0 73 -3 90 -15 90 -12 0 -15 -14 -15 -68 0
-40 -5 -73 -12 -80 -14 -14 -64 -16 -72 -3 -3 5 -7 41 -8 80 -2 49 -7 71 -15
71 -9 0 -13 -21 -13 -73z"/>
<path d="M4080 930 c0 -73 3 -90 15 -90 12 0 15 14 15 68 0 75 10 92 52 92 36
0 48 -24 48 -99 0 -34 4 -61 10 -61 15 0 13 153 -2 168 -7 7 -28 12 -48 12
-20 0 -41 -5 -48 -12 -9 -9 -12 -9 -12 0 0 7 -7 12 -15 12 -12 0 -15 -17 -15
-90z"/>
</g>
</svg>
